# xmcd
#
# Track frame offsets:
# 150
# 15982
# 29465
# 49805
# 72302
# 84191
# 103203
# 125593
# 138086
# 156295
#
# Disc length: 2220 seconds
#
#
# Revision: 0
# Processed by: cddbd v1.5PL3 Copyright (c) Steve Scherf et al.
# Submitted via: FreeRIP 2.12 
#
DISCID=7d08aa0a
DTITLE=Richard Harold  - Richard Harold AD
DYEAR=2004
DGENRE=Gospel
TTITLE0=Just Want to Thank You Lord
TTITLE1=That Heavenly Home
TTITLE2=Lighthouse
TTITLE3=He'll Hold to My Hand
TTITLE4=Never Been This Homesick
TTITLE5=When He Reached Down His Hand
TTITLE6=Trade the Old Cross for a Crown
TTITLE7=Stand for Jesus
TTITLE8=So You Would Know
TTITLE9='Tis So Sweet
EXTD=Recorded 3/13/04 at Harvest Studios.\nEngineered by Mark Hale.\nProduced by Richard Harold.
EXTT0=
EXTT1=
EXTT2=
EXTT3=
EXTT4=
EXTT5=
EXTT6=
EXTT7=
EXTT8=
EXTT9=
PLAYORDER=
